<?xml version="1.0" encoding="UTF-8"?>
<svg version="1.1" xmlns="http://www.w3.org/2000/svg" width="1024" height="1024">
<path d="M0 0 C5.53436806 0.00228606 11.0687331 -0.00124159 16.60310054 -0.00397992 C27.42175991 -0.00840507 38.2404123 -0.00747497 49.05907193 -0.00456728 C57.87622623 -0.00229713 66.69337859 -0.00200768 75.51053309 -0.0030911 C77.40229737 -0.00332095 77.40229737 -0.00332095 79.3322791 -0.00355544 C81.89572126 -0.00387522 84.45916341 -0.00419943 87.02260557 -0.00452803 C110.33640534 -0.00729318 133.65020107 -0.0044356 156.96399999 0.00081457 C178.12181398 0.00554315 199.27962194 0.00514846 220.43743587 0.00035357 C244.31218183 -0.00503918 268.18692448 -0.00708361 292.06167126 -0.00403416 C294.62357418 -0.00371569 297.1854771 -0.00340131 299.74738002 -0.0030911 C301.63716716 -0.00285968 301.63716716 -0.00285968 303.56513183 -0.0026236 C312.33097545 -0.00176977 321.09681689 -0.00319683 329.86266017 -0.00557065 C340.60607485 -0.00841637 351.34948226 -0.00753296 362.09289613 -0.00228991 C367.54747671 0.00028662 373.0020453 0.00145946 378.4566257 -0.00193906 C400.45491823 -0.01421687 422.45265186 0.07565452 444.44877926 0.40289845 C446.68652702 0.43458843 448.92434233 0.46188709 451.16220245 0.48427866 C487.94118789 0.87029754 521.65244624 9.76510827 550.00237727 34.13072467 C550.70749446 34.71466998 551.41261165 35.29861529 552.13909602 35.90025592 C571.43718386 52.18416622 583.59524654 75.0470683 590.00237727 99.13072467 C590.47804133 100.8535567 590.47804133 100.8535567 590.96331477 102.61119342 C597.46514872 130.06695757 595.29611853 160.37370144 595.26382661 188.37467599 C595.25924236 194.27249444 595.26631498 200.17030174 595.27178645 206.06811786 C595.28061894 217.57975842 595.27878619 229.09137271 595.27296117 240.60301425 C595.26842071 249.96847865 595.26778969 259.33393551 595.2700088 268.69940066 C595.27023796 269.70293846 595.27023796 269.70293846 595.27047174 270.72674975 C595.27109457 273.44353892 595.27173139 276.16032807 595.27239127 278.87711723 C595.27848824 304.28271155 595.27299564 329.68829164 595.26219748 355.09388377 C595.25270642 377.59510397 595.2535598 400.09630153 595.26311946 422.59752154 C595.27386084 447.96412045 595.27805775 473.33070684 595.27189493 498.69730771 C595.27125364 501.40809854 595.27062795 504.11888937 595.2700088 506.8296802 C595.26985065 507.49699163 595.26969249 508.16430306 595.26952955 508.85183605 C595.26726803 518.86683678 595.26990277 528.88182677 595.27496791 538.89682651 C595.28060848 550.29881798 595.27899399 561.70078197 595.26840642 573.10277034 C595.26319245 578.9068267 595.26101895 584.7108374 595.26770473 590.51489329 C595.32499016 644.94410523 594.79473478 695.93663018 554.87737727 737.63072467 C531.32864373 760.5597547 499.13657202 773.8352851 466.30490565 774.44258189 C465.36023572 774.46305436 464.41556579 774.48352683 463.4422695 774.50461967 C460.32684694 774.57000818 457.21134778 774.6281389 454.09576106 774.68513751 C453.01174221 774.70610904 451.92772336 774.72708058 450.81085545 774.74868761 C427.79933419 775.1898744 404.792425 775.27539884 381.77734685 775.26144934 C376.07079056 775.25912745 370.36423693 775.2627073 364.65768123 775.26542926 C353.56207907 775.26981335 342.46648378 775.26894452 331.37088138 775.26601662 C322.34623642 775.26373584 313.32159336 775.26346147 304.29694819 775.26454043 C303.00083477 775.26469367 301.70472134 775.2648469 300.36933175 775.26500478 C297.7346462 775.26532457 295.09996065 775.26564878 292.46527511 775.26597737 C268.62111902 775.26872951 244.77696661 775.26590374 220.93281112 775.26063477 C199.24082859 775.25587787 177.54885194 775.25632766 155.85686946 775.26109576 C131.35301133 775.26646426 106.84915673 775.26854868 82.34529805 775.2654835 C79.72894136 775.265165 77.11258467 775.26485063 74.49622798 775.26454043 C73.20954013 775.26438616 71.92285229 775.26423188 70.5971739 775.26407293 C61.58491727 775.26321403 52.57266275 775.2646568 43.56040645 775.26701999 C32.57747618 775.26983732 21.59455305 775.26903863 10.61162359 775.26373924 C5.02249648 775.26113017 -0.56661876 775.26004938 -6.15574574 775.2633884 C-44.67251524 775.28422499 -44.67251524 775.28422499 -59.58441472 774.74373126 C-60.50342958 774.71285076 -61.42244444 774.68197026 -62.36930823 774.65015399 C-75.45781272 774.06235155 -88.25608342 770.99500215 -100.99762273 768.13072467 C-100.99762273 767.47072467 -100.99762273 766.81072467 -100.99762273 766.13072467 C-101.82906804 766.04049029 -102.66051335 765.95025592 -103.51715398 765.85728717 C-107.65627905 764.99322739 -110.95009312 763.4354675 -114.68512273 761.50572467 C-115.38774236 761.14744586 -116.09036199 760.78916705 -116.81427312 760.42003131 C-126.22877339 755.54764281 -134.77096713 749.805791 -142.99762273 743.13072467 C-144.02887273 742.32634967 -145.06012273 741.52197467 -146.12262273 740.69322467 C-149.77534848 737.43753432 -152.87733866 733.89159685 -155.99762273 730.13072467 C-156.53000554 729.50939654 -157.06238835 728.88806842 -157.61090398 728.24791217 C-180.71859845 700.12160147 -188.25255355 666.93361362 -188.67703557 631.33931231 C-188.70975667 629.37641449 -188.74321427 627.41352883 -188.77735054 625.4506551 C-189.1153589 604.64108201 -189.14113082 583.82876828 -189.1283474 563.01698256 C-189.12603045 557.40173793 -189.12960309 551.78649604 -189.13232732 546.17125201 C-189.1367165 535.24689067 -189.13584016 524.3225363 -189.13291468 513.39817472 C-189.1306358 504.5135771 -189.13035874 495.6289814 -189.13143849 486.74438357 C-189.13159173 485.46935363 -189.13174496 484.19432369 -189.13190284 482.88065647 C-189.13222262 480.28896933 -189.13254684 477.69728218 -189.13287543 475.10559504 C-189.13562905 451.63807454 -189.1327994 428.17055867 -189.12753283 404.703039 C-189.12277669 383.34738925 -189.12322474 361.99174546 -189.12799382 340.63609576 C-189.13336105 316.52269148 -189.13544737 292.40929125 -189.13238156 268.29588616 C-189.13206306 265.72163041 -189.13174869 263.14737467 -189.13143849 260.57311893 C-189.13128422 259.30708259 -189.13112994 258.04104625 -189.13097099 256.73664517 C-189.13011165 247.86375842 -189.13155585 238.99087381 -189.13391805 230.11798739 C-189.13673399 219.30544869 -189.13593959 208.49291723 -189.1306373 197.68037935 C-189.12802626 192.17658898 -189.12695088 186.67281067 -189.13028646 181.16902041 C-189.16004796 127.27042973 -188.92977185 79.48536741 -149.25934148 38.28697467 C-107.83788616 -1.58762133 -53.63318721 -0.03284362 0 0 Z " fill="#FECD40" transform="translate(308.9976227283478,123.86927533149719)"/>
<path d="M0 0 C1.88280437 -0.00668677 1.88280437 -0.00668677 3.80364519 -0.01350862 C5.19918733 -0.01341932 6.59472946 -0.01322947 7.99027157 -0.01294994 C9.47081328 -0.0162495 10.9513541 -0.01997526 12.43189377 -0.02409142 C16.50618755 -0.03410923 20.58046661 -0.03782787 24.65477097 -0.04048073 C29.04691483 -0.04438446 33.43904702 -0.05396279 37.83118343 -0.0626936 C48.44145018 -0.08245658 59.05171787 -0.09252423 69.66199842 -0.10142139 C74.65899604 -0.10580476 79.6559926 -0.11117146 84.65298939 -0.11641026 C101.26511986 -0.13342274 117.87724967 -0.14791665 134.48938751 -0.155159 C138.80038676 -0.15706888 143.11138599 -0.15898922 147.42238522 -0.16094494 C148.49385911 -0.16142868 149.56533301 -0.16191242 150.66927581 -0.16241082 C168.02424685 -0.17071011 185.37914893 -0.19604524 202.73408986 -0.22852562 C220.55343654 -0.26160314 238.37274819 -0.27960841 256.19212574 -0.28280324 C266.19645394 -0.28496774 276.20068162 -0.29370768 286.2049799 -0.31926441 C294.72566813 -0.34098089 303.24623141 -0.34901717 311.76694418 -0.33929763 C316.11262923 -0.33475562 320.45805653 -0.33663332 324.80370617 -0.35605907 C328.78699595 -0.37371083 332.76984032 -0.37267694 336.75313496 -0.35716178 C338.18927702 -0.35478874 339.62545009 -0.35909348 341.06154484 -0.37099043 C355.70804497 -0.48474784 366.96023349 3.38000736 377.6662817 13.50922108 C388.73671543 25.24439217 390.68235546 39.46074376 391.39675045 54.93500233 C391.43694679 55.77547359 391.47714314 56.61594486 391.51855755 57.48188496 C391.80502151 63.80201644 391.97741653 70.1215468 392.1037817 76.44672108 C392.12461189 77.36556458 392.14544209 78.28440807 392.1669035 79.23109531 C392.97836617 118.90234438 392.97836617 118.90234438 380.98551083 132.72984791 C374.51980554 139.33033986 367.08110908 144.82917927 358.9162817 149.13422108 C358.5862817 149.13422108 358.2562817 149.13422108 357.9162817 149.13422108 C357.91481514 148.58314875 357.91334858 148.03207642 357.91183758 147.46430492 C357.87475326 134.04296371 357.81546537 120.62187783 357.73237896 107.20073986 C357.69286789 100.71029491 357.66069702 94.21998638 357.64528561 87.72943592 C357.63014325 81.46582379 357.59573995 75.20258661 357.54797268 68.93914127 C357.53313403 66.54938103 357.52523927 64.15956725 357.52439785 61.76976109 C357.52203403 58.42257923 357.49499953 55.07643849 357.46218014 51.72943592 C357.4672105 50.74112782 357.47224087 49.75281971 357.47742367 48.73456287 C357.39136992 43.06286374 356.87587543 39.52293255 352.9162817 35.13422108 C349.1298219 32.402899 346.52338739 31.75844393 341.88295746 31.75390434 C340.66448075 31.7454644 339.44600404 31.73702446 338.19060379 31.72832876 C336.84172068 31.73412379 335.49283877 31.7402048 334.14395809 31.74654102 C332.7084842 31.74236818 331.27301361 31.73689093 329.83754915 31.73022121 C325.89261627 31.71574128 321.94789186 31.72001922 318.00294745 31.72738802 C313.74860036 31.73211111 309.49429893 31.71961749 305.23996639 31.70937061 C296.90530496 31.69216045 288.57071883 31.69134718 280.23604424 31.69658352 C273.46275112 31.70062227 266.68948029 31.69918516 259.91618824 31.69383526 C258.95277232 31.69308684 257.98935639 31.69233841 256.99674604 31.69156731 C255.0396721 31.69003586 253.08259815 31.68849752 251.12552422 31.68695235 C232.76587893 31.67321932 214.40627624 31.67867066 196.04663192 31.69013756 C179.24445857 31.70007114 162.44239532 31.68712853 145.64023895 31.66320337 C128.39379095 31.63883029 111.14739427 31.62920006 93.90092939 31.63585609 C84.21592599 31.63935226 74.53100729 31.63709007 64.84601688 31.61960506 C56.60150772 31.60490549 48.3571429 31.6042182 40.11263663 31.62167598 C35.90528953 31.63020686 31.69820052 31.63228484 27.49086666 31.61702442 C23.63985259 31.60322919 19.78931899 31.60787329 15.93833309 31.62726366 C14.54471215 31.63103994 13.15105319 31.62805496 11.75746597 31.61765201 C1.94337128 31.30957468 1.94337128 31.30957468 -6.0837183 36.13422108 C-8.56221345 39.79052163 -8.36398751 43.53672557 -8.33819389 47.79643631 C-8.34140037 48.5762056 -8.34460685 49.35597489 -8.34791049 50.15937355 C-8.35625152 52.78798032 -8.35027193 55.41636167 -8.34441471 58.04497242 C-8.34743352 59.94227088 -8.35132164 61.83956812 -8.35600728 63.7368632 C-8.36633083 68.96291752 -8.36409441 74.18890357 -8.35982668 79.4149636 C-8.35736735 85.04626933 -8.36636372 90.67755827 -8.37386417 96.30885792 C-8.38663517 107.34576733 -8.38840189 118.38265244 -8.38606391 129.41956799 C-8.38428333 138.38730162 -8.3860248 147.35502784 -8.39028835 156.32276058 C-8.39088354 157.59744118 -8.39147873 158.87212177 -8.39209196 160.18542906 C-8.39330366 162.77465427 -8.3945178 165.36387947 -8.39573433 167.95310468 C-8.40352545 185.34651866 -8.40743792 202.73992772 -8.40341759 220.13334274 C-8.40326121 220.81376831 -8.40310484 221.49419387 -8.40294372 222.19523839 C-8.40213792 225.64404795 -8.40129214 229.09285749 -8.40043042 232.54166704 C-8.40017379 233.56911739 -8.40017379 233.56911739 -8.39991197 234.61732431 C-8.39956532 236.00249414 -8.39921679 237.38766397 -8.39886638 238.77283381 C-8.39350826 260.32975446 -8.40144125 281.88663422 -8.41989994 303.44354725 C-8.4406054 327.65280555 -8.45131437 351.8620308 -8.44732445 376.07130057 C-8.44540888 388.8934508 -8.44793456 401.71556377 -8.46203899 414.53770733 C-8.47392378 425.45278167 -8.47539037 436.36779581 -8.46324883 447.28287094 C-8.45733979 452.85506551 -8.4563164 458.42714982 -8.46825123 463.9993372 C-8.47904138 469.09619171 -8.47608913 474.19284297 -8.46198954 479.2896877 C-8.45932357 481.13755862 -8.46176815 482.98544511 -8.46972541 484.83330082 C-8.47976532 487.3378371 -8.47146661 489.84165778 -8.45844841 492.3461647 C-8.46941243 493.43174537 -8.46941243 493.43174537 -8.48059794 494.53925696 C-8.43325374 498.90918426 -7.78030117 501.66926686 -5.0837183 505.13422108 C-1.82959735 507.30363505 -0.93065326 507.38622899 2.83008003 507.3959341 C3.84972129 507.4033996 4.86936255 507.41086509 5.91990203 507.41855681 C7.04342946 507.41662207 8.16695689 507.41468734 9.3245306 507.41269398 C10.51540761 507.41848638 11.70628462 507.42427878 12.93324882 507.43024671 C16.24439083 507.44434157 19.55533105 507.44947942 22.86648858 507.45089531 C26.43500105 507.45458287 30.00346666 507.46973508 33.57195187 507.48351002 C39.75645808 507.50580699 45.94094768 507.52080559 52.12548542 507.53087711 C61.06733317 507.54544942 70.00912305 507.57098213 78.95093689 507.5992084 C93.4576804 507.64470277 107.96443223 507.68130662 122.47121334 507.71234608 C136.56497821 507.7425208 150.65872271 507.7768661 164.75246334 507.81683826 C165.62089088 507.81929981 166.48931843 507.82176136 167.38406195 507.8242975 C171.74061498 507.83667189 176.09716777 507.84912847 180.45372045 507.86162591 C216.60787945 507.9652333 252.76206271 508.05442347 288.9162817 508.13422108 C288.90628895 507.16488636 288.90628895 507.16488636 288.89609432 506.17596912 C288.82953012 499.42724063 288.78439362 492.67860598 288.75148678 485.92963123 C288.73643551 483.41364215 288.71598989 480.89767915 288.68996334 478.38177967 C288.65341988 474.75752783 288.63651817 471.13362407 288.62331295 467.50922108 C288.60782909 466.39120106 288.59234524 465.27318104 288.57639217 464.12128162 C288.57466209 456.02417442 289.52630758 449.2251092 295.0412817 442.88422108 C295.81858639 441.9483617 295.81858639 441.9483617 296.6115942 440.99359608 C303.69880645 435.27577738 310.88858265 434.5692442 319.73268795 434.74359608 C320.82975567 434.74925587 321.92682339 434.75491566 323.05713558 434.76074696 C326.53147776 434.78298334 330.00475577 434.83315726 333.4787817 434.88422108 C335.84660526 434.90430248 338.21444512 434.92255036 340.58229733 434.93890858 C346.36064991 434.98280624 352.13838975 435.04959003 357.9162817 435.13422108 C357.84522213 434.06522572 357.77416256 432.99623035 357.70094967 431.89484119 C357.04347618 421.66641784 356.56869867 411.44240679 356.2582922 401.19743061 C356.09324505 395.93170253 355.87120726 390.68336875 355.5022192 385.42767811 C352.95806134 348.23737058 352.95806134 348.23737058 365.1819067 334.02484608 C372.64558436 325.86304913 381.08863031 318.76831013 389.9162817 312.13422108 C398.0765151 328.45468787 395.2144426 358.57803421 395.9162817 376.82172108 C395.94703352 377.59163112 395.97778534 378.36154117 396.00946903 379.15478182 C397.53936566 418.72148426 395.33068815 451.31670771 367.80167294 481.58109188 C361.13126919 488.77548727 353.99427431 495.4314923 346.6662817 501.94672108 C346.15185513 502.40592803 345.63742855 502.86513499 345.10741329 503.33825731 C302.56546496 541.246451 302.56546496 541.246451 288.83207512 541.26564884 C287.79980952 541.26948999 286.76754393 541.27333113 285.70399755 541.27728868 C284.57143154 541.27642219 283.43886553 541.27555571 282.27197933 541.27466297 C280.46539737 541.27911965 280.46539737 541.27911965 278.6223188 541.28366637 C275.27771135 541.29084691 271.93315525 541.29352571 268.58854377 541.29426384 C264.98168384 541.29611518 261.37483503 541.30366305 257.76798153 541.31039906 C249.87930318 541.32398111 241.99062992 541.33000723 234.10194182 541.33440971 C229.1743676 541.33717301 224.24679534 541.34141058 219.31922245 541.34591389 C205.67177198 541.35810762 192.02432309 541.36840593 178.37686729 541.37178898 C177.0666094 541.37211833 177.0666094 541.37211833 175.72988165 541.37245433 C174.41650842 541.37278175 174.41650842 541.37278175 173.0766024 541.37311578 C171.30237766 541.37355924 169.52815292 541.37400581 167.75392818 541.37445545 C166.87385363 541.37467688 165.99377908 541.37489831 165.0870356 541.37512645 C150.83600663 541.37907198 136.58502886 541.39651804 122.33401965 541.41981497 C107.69678724 541.44354971 93.0595805 541.45599184 78.42232853 541.4571569 C70.20653881 541.4580726 61.99081576 541.46379819 53.77504444 541.48197651 C46.77683375 541.49740633 39.77871034 541.5024811 32.78048586 541.49423841 C29.21253506 541.49034173 25.64475986 541.491213 22.07683086 541.50529575 C18.20096881 541.52045334 14.3253515 541.5121388 10.44946957 541.50171375 C9.33251861 541.50977016 8.21556764 541.51782656 7.06476969 541.5261271 C-8.74721319 541.42693953 -20.04352063 536.26829798 -31.0837183 525.13422108 C-33.46968829 522.32618419 -35.55737223 519.61747479 -37.2087183 516.32172108 C-37.52067142 515.71715076 -37.83262455 515.11258045 -38.1540308 514.48968983 C-40.58937689 508.31946423 -41.37830876 502.46949118 -41.34098721 495.87442875 C-41.34449328 495.07863427 -41.34799935 494.28283979 -41.35161167 493.46293032 C-41.3608947 490.80383123 -41.35601038 488.14495263 -41.35114384 485.48584461 C-41.35488165 483.5570841 -41.3594837 481.62832511 -41.36487448 479.69956851 C-41.37710358 474.40485674 -41.37684411 469.11020815 -41.37448573 463.81548548 C-41.37407754 458.10299519 -41.38511688 452.39052516 -41.39460087 446.67804432 C-41.41121125 435.48827188 -41.41671043 424.29852052 -41.41782562 413.10873678 C-41.41877606 404.01291687 -41.42288613 394.91710391 -41.42922688 385.8212862 C-41.44397359 364.22753968 -41.4562766 342.63379966 -41.45522976 321.04004765 C-41.4551986 320.34969979 -41.45516744 319.65935194 -41.45513534 318.94808446 C-41.45496913 315.44924156 -41.45477105 311.95039866 -41.45456593 308.45155576 C-41.45452604 307.75669308 -41.45448615 307.0618304 -41.45444505 306.34591128 C-41.45436417 304.94072994 -41.45428058 303.5355486 -41.45419426 302.13036726 C-41.4529689 280.27062266 -41.4679803 258.41094011 -41.49533939 236.55121326 C-41.52607633 211.98258203 -41.54324559 187.41399552 -41.54141295 162.84534335 C-41.54074898 149.84025074 -41.54624452 136.83522812 -41.56776905 123.83015156 C-41.58597765 112.75762654 -41.59033074 101.68520324 -41.5767502 90.61266974 C-41.57021907 84.96461311 -41.57010886 79.31675165 -41.5874567 73.66871357 C-41.6031856 68.49450288 -41.60032539 63.32064215 -41.58288844 58.14644 C-41.57981818 56.27837413 -41.58345186 54.41028216 -41.59460859 52.54224709 C-41.68319949 36.65180153 -39.42871027 24.28655577 -28.27512455 12.16937733 C-20.49664995 4.77901788 -10.73359748 0.01767569 0 0 Z " fill="#191917" transform="translate(288.0837182998657,241.86577892303467)"/>
<path d="M0 0 C1.12624741 0.96082823 2.25185835 1.92240256 3.37719822 2.88429356 C4.00409064 3.41969055 4.63098306 3.95508754 5.27687222 4.50670868 C7.09286393 6.08047744 8.82297652 7.70799752 10.51342773 9.41577148 C11.40486732 10.31216591 11.40486732 10.31216591 12.3143158 11.22666931 C12.93117752 11.85182938 13.54803925 12.47698944 14.18359375 13.12109375 C14.84279312 13.78407974 15.50199249 14.44706573 16.1811676 15.13014221 C18.97009346 17.93524066 21.7529851 20.74629681 24.53637695 23.55688477 C26.58332833 25.62207178 28.63339306 27.68413321 30.68359375 29.74609375 C31.60584999 30.6807975 31.60584999 30.6807975 32.54673767 31.63438416 C36.29842913 35.40681839 40.18195647 38.95781032 44.20814514 42.43522644 C46.31464901 44.27477362 48.31215123 46.19808583 50.28125 48.18359375 C51.32539062 49.23256836 51.32539062 49.23256836 52.390625 50.30273438 C53.43476562 51.35944336 53.43476562 51.35944336 54.5 52.4375 C55.22703125 53.16904297 55.9540625 53.90058594 56.703125 54.65429688 C58.47109623 56.43389949 60.23620179 58.21626446 62 60 C57.71324693 65.11697794 53.22928092 69.92114634 48.51226807 74.64163208 C47.77915775 75.37912465 47.04604743 76.11661722 46.29072165 76.87645805 C43.84754595 79.33292759 41.40085809 81.78586702 38.95410156 84.23876953 C37.19588882 86.00489028 35.43785716 87.77119132 33.67999268 89.53765869 C28.4175852 94.82393765 23.15087158 100.10590747 17.88298571 105.38672572 C16.39365282 106.87977712 14.90444721 108.37295534 13.41528606 109.86617804 C4.15221093 119.15448071 -5.11246065 128.44118779 -14.38192368 137.72311592 C-16.52384114 139.86796263 -18.66574234 142.01282558 -20.80761719 144.15771484 C-21.33991173 144.69075544 -21.87220628 145.22379604 -22.42063096 145.77298938 C-31.04812501 154.41314435 -39.66527725 163.06353835 -48.27825853 171.71815802 C-57.1352112 180.61757486 -66.00160555 189.50749739 -74.87720513 198.38831794 C-79.85476034 203.36928059 -84.8280998 208.35429784 -89.79082489 213.35004044 C-94.45798747 218.0482054 -99.13784155 222.73344937 -103.82642365 227.41025543 C-105.54238061 229.1259917 -107.25408305 230.84599554 -108.96112061 232.57060623 C-111.29741344 234.92963024 -113.6487425 237.27260327 -116.0043335 239.61233521 C-117.00505784 240.63388268 -117.00505784 240.63388268 -118.02599883 241.67606747 C-125.32830761 248.85835604 -134.16635563 252.2750893 -143.6875 255.63671875 C-145.02709526 256.11895401 -145.02709526 256.11895401 -146.39375305 256.6109314 C-149.2605162 257.64209017 -152.13011378 258.66506913 -155 259.6875 C-158.9532088 261.10293086 -162.90483327 262.5227158 -166.85546875 263.9453125 C-167.82179733 264.29298172 -168.78812592 264.64065094 -169.78373718 264.99885559 C-175.3662417 267.01708035 -180.91378322 269.10128227 -186.42578125 271.3046875 C-187.61494141 271.77817627 -188.80410156 272.25166504 -190.02929688 272.73950195 C-192.14955448 273.59388 -194.26461782 274.46131706 -196.37304688 275.34448242 C-201.78683243 277.52367258 -205.30307487 278.57494359 -211 277 C-212.9375 275.875 -212.9375 275.875 -214 274 C-214.65507832 267.40958184 -212.60865625 262.04821049 -210.4140625 255.890625 C-210.04133209 254.81816528 -209.66860168 253.74570557 -209.28457642 252.64074707 C-208.07590719 249.1731297 -206.85130862 245.71141473 -205.625 242.25 C-204.79213812 239.87940917 -203.95978183 237.50864065 -203.12792969 235.13769531 C-201.11806942 229.42030569 -199.09335075 223.70831327 -197.06335449 217.99804688 C-195.86704802 214.62515203 -194.68305984 211.24806567 -193.50094604 207.87017822 C-192.43121634 204.82511492 -191.34102806 201.78748601 -190.25 198.75 C-189.89373535 197.73196289 -189.5374707 196.71392578 -189.17041016 195.66503906 C-188.6606665 194.27623535 -188.6606665 194.27623535 -188.140625 192.859375 C-187.86766602 192.10108398 -187.59470703 191.34279297 -187.31347656 190.56152344 C-183.67133308 183.45866667 -178.06264596 177.77421327 -172.44497681 172.20446777 C-171.70481083 171.46259295 -170.96464486 170.72071813 -170.20204961 169.95636225 C-167.73788876 167.48892538 -165.26668208 165.0286725 -162.79541016 162.56835938 C-161.02071894 160.79423268 -159.24646874 159.01966472 -157.47262573 157.24468994 C-153.66149933 153.43310912 -149.84734406 149.62460111 -146.03035355 145.81889343 C-140.51173734 140.31657933 -134.99869759 134.80870529 -129.48697297 129.29948884 C-120.54291541 120.35980101 -111.59440715 111.42458221 -102.64306641 102.4921875 C-93.95126092 93.81875954 -85.26157303 85.14321897 -76.57470703 76.46484375 C-76.03862417 75.92928633 -75.50254131 75.39372892 -74.95021351 74.84194249 C-72.26067003 72.15500922 -69.57116796 69.46803453 -66.88168645 66.78103924 C-44.59420384 44.51426664 -22.29941001 22.25482802 0 0 Z " fill="#181817" transform="translate(707,366)"/>
<path d="M0 0 C1.55104785 -0.00935994 1.55104785 -0.00935994 3.13343 -0.01890898 C6.59736417 -0.03486028 10.06059677 -0.02222581 13.52453613 -0.00964355 C16.00826935 -0.01506369 18.49199936 -0.02218574 20.97572327 -0.03088379 C27.02095062 -0.04723753 33.06590277 -0.04483327 39.11111939 -0.03323323 C44.02465261 -0.0241955 48.93813016 -0.02297636 53.85166931 -0.02732849 C54.55129043 -0.02794142 55.25091155 -0.02855436 55.9717333 -0.02918586 C57.39305073 -0.03046478 58.81436814 -0.03176163 60.23568553 -0.03307623 C73.55985021 -0.04447931 86.88390476 -0.03137262 100.20805138 -0.00987476 C111.63798296 0.00799601 123.06775202 0.00489182 134.49768066 -0.0135498 C147.77452854 -0.03496135 161.05127992 -0.0433807 174.32814264 -0.03110075 C175.74419815 -0.02982657 177.16025367 -0.02856909 178.5763092 -0.02732849 C179.62136775 -0.02640284 179.62136775 -0.02640284 180.68753859 -0.02545848 C185.59452665 -0.02200643 190.50145344 -0.0278308 195.40843201 -0.0372467 C202.014225 -0.04964393 208.61975854 -0.04080325 215.22553825 -0.01766968 C217.65152921 -0.01237555 220.07754596 -0.01390832 222.50352669 -0.02272034 C225.81202767 -0.033631 229.11954069 -0.01996508 232.42797852 0 C233.87223874 -0.01338433 233.87223874 -0.01338433 235.34567595 -0.02703905 C241.12101953 0.04068381 244.26765603 0.75090475 248.71398926 4.50793457 C251.54743534 7.52210159 253.53109015 10.64425576 253.94055176 14.81652832 C253.57638962 19.95815087 252.11991835 23.54969265 248.71398926 27.50793457 C243.4025014 32.04353962 239.09001259 32.07760792 232.42797852 32.01586914 C231.39394661 32.0221091 230.35991471 32.02834907 229.29454851 32.03477812 C225.83061434 32.05072942 222.36738175 32.03809495 218.90344238 32.0255127 C216.41970916 32.03093283 213.93597915 32.03805488 211.45225525 32.04675293 C205.4070279 32.06310667 199.36207575 32.06070242 193.31685913 32.04910237 C188.40332591 32.04006464 183.48984835 32.0388455 178.5763092 32.04319763 C177.52687753 32.04411703 177.52687753 32.04411703 176.45624521 32.045055 C175.03492779 32.04633392 173.61361038 32.04763077 172.19229299 32.04894537 C158.86812831 32.06034845 145.54407375 32.04724176 132.21992713 32.0257439 C120.78999556 32.00787313 109.36022649 32.01097732 97.93029785 32.02941895 C84.65344998 32.05083049 71.3766986 32.05924984 58.09983587 32.04696989 C56.68378037 32.04569571 55.26772485 32.04443823 53.85166931 32.04319763 C53.15496361 32.04258053 52.45825791 32.04196343 51.74043992 32.04132763 C46.83345187 32.03787557 41.92652508 32.04369994 37.01954651 32.05311584 C30.41375352 32.06551307 23.80821998 32.05667239 17.20244026 32.03353882 C14.77644931 32.02824469 12.35043255 32.02977746 9.92445183 32.03858948 C6.61595084 32.04950014 3.30843783 32.03583422 0 32.01586914 C-1.44426023 32.02925347 -1.44426023 32.02925347 -2.91769743 32.04290819 C-8.69121509 31.97520674 -11.847834 31.27556217 -16.28601074 27.50793457 C-20.01899743 23.26005317 -20.64383261 19.35492874 -20.56335449 13.85559082 C-19.97242766 8.85352 -17.58490824 5.63156482 -13.78044891 2.34046173 C-9.06316155 -0.13334287 -5.24927647 -0.04864639 0 0 Z " fill="#181817" transform="translate(346.2860107421875,346.4920654296875)"/>
<path d="M0 0 C0.86478071 -0.00384115 1.72956141 -0.00768229 2.62054759 -0.01163983 C4.05412594 -0.01034011 4.05412594 -0.01034011 5.51666546 -0.00901413 C6.52756746 -0.01198525 7.53846947 -0.01495637 8.58000487 -0.01801753 C11.98937584 -0.0267341 15.39871182 -0.02821527 18.80809307 -0.02970505 C21.24359494 -0.03433112 23.67909608 -0.03935549 26.11459637 -0.04475021 C32.74683489 -0.05789634 39.37905963 -0.06435988 46.01130795 -0.06876087 C50.15119413 -0.07152172 54.29107797 -0.0757588 58.43096256 -0.08026505 C69.88914659 -0.09245927 81.34732873 -0.10275812 92.8055191 -0.10614014 C93.90597841 -0.10646949 93.90597841 -0.10646949 95.02866922 -0.10680549 C96.13178963 -0.10713291 96.13178963 -0.10713291 97.25719529 -0.10746694 C98.74746851 -0.10791041 100.23774173 -0.10835697 101.72801495 -0.10880661 C102.46724485 -0.10902804 103.20647476 -0.10924947 103.96810558 -0.10947761 C115.94710223 -0.11342587 127.92603806 -0.13088003 139.90501121 -0.15416613 C152.19850601 -0.17787106 164.49197028 -0.1903416 176.78548831 -0.19150805 C183.68991067 -0.19242533 190.5942538 -0.19819066 197.49865437 -0.21632767 C203.99188504 -0.23332422 210.48500535 -0.23498767 216.97825336 -0.22618866 C219.36435632 -0.22541566 221.75046721 -0.2297954 224.13654995 -0.23964691 C227.3885179 -0.25228823 230.63994599 -0.24653196 233.8919096 -0.23606491 C234.84093633 -0.24412132 235.78996306 -0.25217772 236.76774818 -0.26047826 C241.64365431 -0.22365575 244.9441543 -0.050085 248.89476299 3.13142776 C251.26976299 5.56892776 251.26976299 5.56892776 252.89476299 8.13142776 C252.07831137 16.4257499 241.71230602 24.28715158 235.74554491 29.22564745 C227.75137374 34.56984231 218.19692305 33.61651557 208.96947002 33.33601761 C206.62996978 33.33556826 204.29045552 33.34348202 201.95100689 33.35902786 C195.65587283 33.37714552 189.36758672 33.27857145 183.07381201 33.15670729 C177.141151 33.05936059 171.20880956 33.04907653 165.27545713 33.0370589 C153.53288993 33.01023464 141.7928434 32.89681748 130.05150127 32.7295723 C118.6719365 32.56762936 107.29343865 32.45459352 95.9128294 32.4014473 C94.85820012 32.39650399 94.85820012 32.39650399 93.7822652 32.39146082 C90.95567417 32.37835383 88.12908236 32.36544125 85.30248911 32.35282125 C72.46066382 32.2944892 59.61909839 32.19678786 46.77757549 32.09236526 C45.47657736 32.08211681 44.17557923 32.07186835 42.83515692 32.06130934 C35.36852593 32.00038533 27.90242958 31.92237189 20.43627071 31.81832504 C18.17438465 31.78875764 15.91242795 31.764128 13.65043163 31.74475098 C10.5677687 31.71716338 7.48593225 31.67117119 4.40358257 31.62004471 C3.50506136 31.61582296 2.60654015 31.61160121 1.68079102 31.60725152 C-4.42307155 31.47672846 -7.72626426 30.24607021 -12.35523701 26.13142776 C-15.66600072 22.34769781 -15.38561356 18.34937242 -15.31617451 13.56502151 C-14.90129439 8.77853429 -12.51679103 6.37981669 -9.04273701 3.38142776 C-5.61481611 0.75578622 -4.18665862 0.00695918 0 0 Z " fill="#171717" transform="translate(341.1052370071411,431.8685722351074)"/>
<path d="M0 0 C1.13346864 -0.00512655 1.13346864 -0.00512655 2.28983563 -0.01035666 C4.81748775 -0.01693626 7.34407382 0.00504084 9.87162781 0.0269165 C11.68514989 0.02804497 13.4986738 0.02741114 15.31219482 0.02514648 C20.23338947 0.02399837 25.15419449 0.04752352 30.07529855 0.07544231 C35.21891065 0.10043968 40.36253159 0.10279666 45.50619507 0.10754395 C55.24550575 0.1199786 64.98463693 0.15280691 74.72386855 0.1929419 C85.81201905 0.23764431 96.90017811 0.25964282 107.98839629 0.27972364 C130.79682234 0.32153905 153.60508904 0.3919007 176.41337585 0.48101807 C173.07106705 5.59270709 169.41081724 9.76017532 165.14732361 14.11801147 C163.09041322 16.42056972 161.94072889 18.38734679 160.93528748 21.29910278 C159.08006467 26.12334599 156.90024055 29.72965024 152.41337585 32.48101807 C141.98313896 35.24195433 130.58899596 34.34188854 119.89415836 34.10072184 C115.53969431 34.01768731 111.18519507 34.01808248 106.83006287 34.00857544 C99.52257103 33.98102473 92.21744805 33.89863567 84.91093445 33.77740479 C74.61414173 33.60671181 64.3185364 33.53990031 54.02055025 33.49155068 C46.87448896 33.45415972 39.72860649 33.3921653 32.58276653 33.32541037 C30.8536141 33.30934191 29.12445544 33.29393082 27.39529133 33.27917337 C22.46784066 33.2361849 17.5410603 33.17776315 12.61411476 33.09474182 C11.12346775 33.07164675 9.63273576 33.05343137 8.14196587 33.04050827 C6.10378254 33.02174719 4.06581618 32.98270887 2.02793884 32.94271851 C0.8886858 32.92600161 -0.25056725 32.90928471 -1.42434311 32.89206123 C-5.675991 32.33941876 -9.08090502 30.88659435 -12.2311554 27.94586182 C-16.79503899 21.97770635 -17.34759166 17.9532963 -16.58662415 10.48101807 C-12.92176116 3.01555642 -8.2106506 -0.1363977 0 0 Z " fill="#181717" transform="translate(342.5866241455078,517.5189819335938)"/>
<path d="M0 0 C6.87045297 4.43621963 12.10074088 11.15054619 17.375 17.31640625 C22.65403369 23.18777246 28.41656312 28.63615037 34.05078125 34.1640625 C40.04287854 40.28796566 41.91976014 44.95713801 41.828125 53.59375 C40.76651215 60.22883031 37.00525665 64.30000633 32.37890625 68.796875 C31.51962776 69.64978622 31.51962776 69.64978622 30.64299011 70.51992798 C28.82625321 72.3199808 26.99932834 74.10927182 25.171875 75.8984375 C23.93225265 77.12299977 22.6933129 78.34825344 21.45507812 79.57421875 C18.43101553 82.56534849 15.39777585 85.54687656 12.359375 88.5234375 C5.41834067 82.84321959 -0.81736406 76.47341994 -7.13671875 70.125 C-8.33718787 68.92266282 -9.53788018 67.72054845 -10.73878479 66.51864624 C-13.87929048 63.37434587 -17.01677981 60.22705271 -20.15362549 57.07910156 C-23.36295118 53.85949577 -26.57515505 50.64276429 -29.78710938 47.42578125 C-36.07441602 41.12779115 -42.35853606 34.82663185 -48.640625 28.5234375 C-47.70527357 27.42010324 -46.76815589 26.31826619 -45.83032227 25.21704102 C-45.0478286 24.29641624 -45.0478286 24.29641624 -44.24952698 23.35719299 C-41.8223496 20.5908033 -39.21292938 18.02774693 -36.578125 15.4609375 C-33.56563719 12.52559406 -30.66276517 9.61129463 -28.02734375 6.328125 C-25.91927968 3.85089095 -24.28440074 2.33420014 -21.515625 0.7109375 C-20.85304688 0.31261719 -20.19046875 -0.08570313 -19.5078125 -0.49609375 C-12.96748962 -3.9304474 -6.4181827 -3.12056469 0 0 Z " fill="#181717" transform="translate(770.640625,323.4765625)"/>
<path d="M0 0 C0.33 0 0.66 0 1 0 C1 152.79 1 305.58 1 463 C0.67 462.34 0.34 461.68 0 461 C-0.66 461 -1.32 461 -2 461 C-2.04574126 402.84899229 -2.08100484 344.69798588 -2.10213066 286.5469638 C-2.1046254 279.68739641 -2.10721849 272.82782905 -2.10986328 265.96826172 C-2.1101248 265.28564164 -2.11038632 264.60302157 -2.11065576 263.89971604 C-2.11918292 241.76234279 -2.13420886 219.62497973 -2.15259444 197.48761266 C-2.17198326 174.09987999 -2.18398928 150.71215583 -2.18817699 127.32441449 C-2.19092622 113.30861338 -2.19962078 99.29284151 -2.21583293 85.27704939 C-2.22637509 75.67616663 -2.22960693 66.07529906 -2.22700275 56.47441092 C-2.22571713 50.92871558 -2.22773825 45.38307149 -2.23841095 39.83738518 C-2.24810047 34.76575614 -2.24866304 29.69421309 -2.24179779 24.6225802 C-2.24094854 22.78268099 -2.24352192 20.94277653 -2.24976636 19.10288772 C-2.25773358 16.61159496 -2.25350238 14.12061709 -2.24609566 11.62932968 C-2.25134968 10.90665187 -2.25660371 10.18397406 -2.26201695 9.43939692 C-2.23733685 5.79299027 -2.00452758 3.10092532 0 0 Z " fill="#342716" transform="translate(278,280)"/>
<path d="M0 0 C4.52072791 3.78677837 8.84952265 7.68602866 13 11.875 C13.52126465 12.39819824 14.0425293 12.92139648 14.57958984 13.46044922 C17.93218217 16.8506056 21.11036423 20.34351773 24.19921875 23.9765625 C27.93368235 28.17277106 31.99328899 32.06584512 36 36 C32.70398653 38.19734231 29.35102165 39.49260939 25.6640625 40.85546875 C24.58951309 41.25431023 24.58951309 41.25431023 23.49325562 41.66120911 C21.97941551 42.22066907 20.46471318 42.77780067 18.94921875 43.33276367 C16.636081 44.18342494 14.32992554 45.05142035 12.0234375 45.91992188 C10.54987845 46.46202409 9.0759321 47.00307491 7.6015625 47.54296875 C6.91494537 47.80434128 6.22832825 48.06571381 5.52090454 48.33500671 C1.64469206 49.72832526 -1.06565561 50.41359499 -5 49 C-7.45703125 46.93359375 -7.45703125 46.93359375 -9.8125 44.4375 C-10.60269531 43.61121094 -11.39289062 42.78492188 -12.20703125 41.93359375 C-13.09455078 40.97646484 -13.09455078 40.97646484 -14 40 C-11.57334561 31.28793422 -8.45432842 22.84655403 -5.3125 14.375 C-4.79594774 12.97536233 -4.27966971 11.57562342 -3.76367188 10.17578125 C-2.51226966 6.78268275 -1.25717674 3.39096389 0 0 Z " fill="#FDD140" transform="translate(533,567)"/>
<path d="M0 0 C0.71841328 0.14174086 1.43682656 0.28348171 2.17700994 0.42951775 C9.77352613 1.82578063 17.03098313 2.27641719 24.74282837 2.22705078 C26.58143922 2.22749736 26.58143922 2.22749736 28.45719373 2.22795296 C31.82398674 2.22681263 35.19053101 2.21675863 38.5572803 2.20281315 C42.20130504 2.18997346 45.84533601 2.18891985 49.48937988 2.1864624 C55.79161485 2.18071042 62.09380247 2.16786816 68.39601517 2.15032959 C77.50995116 2.12515196 86.6238698 2.11305265 95.73783486 2.10446286 C110.53015246 2.09035499 125.32244804 2.06876754 140.11474609 2.04101562 C140.99863866 2.03936 141.88253122 2.03770438 142.79320841 2.03599858 C149.07047264 2.02419228 155.34773636 2.01212017 161.625 2 C168.81298792 1.9861316 176.00097607 1.97240221 183.18896484 1.95898438 C184.07480604 1.95732812 184.96064723 1.95567187 185.8733321 1.95396543 C200.6248972 1.92662799 215.37646269 1.90709417 230.12804639 1.89316368 C239.22501271 1.88419085 248.32191427 1.86808949 257.41885035 1.84287405 C263.64114929 1.82606793 269.86343326 1.81625163 276.0857534 1.81202364 C279.67894447 1.80932499 283.27205179 1.80325243 286.8652153 1.78850555 C290.75249671 1.77261079 294.6396922 1.77199286 298.52700806 1.77294922 C299.67249953 1.7657593 300.817991 1.75856937 301.99819434 1.75116158 C303.55014473 1.75528462 303.55014473 1.75528462 305.13344765 1.75949097 C306.0314366 1.75764738 306.92942556 1.75580379 307.8546263 1.75390434 C310 2 310 2 312 4 C309.04122663 4.98625779 307.12395856 5.12711693 304.03884125 5.13142776 C302.49342942 5.13718948 302.49342942 5.13718948 300.91679716 5.1430676 C299.78131831 5.14220112 298.64583945 5.14133463 297.47595215 5.14044189 C296.2724186 5.14341302 295.06888505 5.14638414 293.82888079 5.1494453 C290.482014 5.15663361 287.13519853 5.15930524 283.78832769 5.16004276 C280.18076851 5.16189225 276.57322047 5.16943925 272.96566772 5.17617798 C265.07279806 5.18976839 257.17993348 5.19578763 249.28705406 5.20018864 C244.35730761 5.20295088 239.42756312 5.2071883 234.49781799 5.21169281 C220.84611891 5.22388832 207.1944214 5.23418583 193.54271698 5.2375679 C192.6686766 5.23778747 191.79463621 5.23800703 190.89410976 5.23823325 C190.0179795 5.23845153 189.14184925 5.23866981 188.2391696 5.2388947 C186.46380838 5.23933817 184.68844716 5.23978473 182.91308594 5.24023438 C182.03244588 5.2404558 181.15180583 5.24067723 180.24447972 5.24090537 C165.98692064 5.24485019 151.72941277 5.26229327 137.47187346 5.2855939 C122.83015266 5.30932887 108.18845752 5.3217708 93.54671717 5.32293582 C85.3275591 5.32385158 77.10846768 5.32957856 68.889328 5.34775543 C61.8874333 5.36318567 54.88562584 5.36825983 47.88371736 5.36001733 C44.31374828 5.35612062 40.7439547 5.35699208 37.17400742 5.37107468 C33.29590236 5.38623224 29.41804191 5.3779177 25.53991699 5.36749268 C24.42228391 5.37554908 23.30465083 5.38360548 22.15315008 5.39190602 C5.28616256 5.28616256 5.28616256 5.28616256 0 0 Z " fill="#261E15" transform="translate(273,778)"/>
<path d="M0 0 C0.99 0.495 0.99 0.495 2 1 C2.33 34.66 2.66 68.32 3 103 C25.77370341 84.66874112 25.77370341 84.66874112 33.21147156 61.35359192 C33.09585264 59.81492291 32.97711973 58.27648511 32.85546875 56.73828125 C32.82737486 55.07309041 32.81150696 53.40765489 32.80696106 51.74223328 C32.76384693 47.45619632 32.56091361 43.19404803 32.31750488 38.91534424 C32.09754823 34.51156428 32.03808854 30.10547198 31.96289062 25.69726562 C31.79402983 17.12186168 31.45531634 8.5649649 31 0 C31.33 0 31.66 0 32 0 C32.93579128 12.17774473 33.57611851 24.35415773 33.9375 36.5625 C33.96388927 37.45051174 33.99027855 38.33852348 34.0174675 39.25344467 C35.0274543 77.73731901 35.0274543 77.73731901 23.0818634 91.3533783 C16.56917601 97.9509765 9.12070609 103.54402968 1 108 C0.67 108 0.34 108 0 108 C0 72.36 0 36.72 0 0 Z " fill="#030108" transform="translate(646,283)"/>
<path d="M0 0 C0.33 0 0.66 0 1 0 C1 29.04 1 58.08 1 88 C1.66 88 2.32 88 3 88 C3 88.66 3 89.32 3 90 C-13.5 90 -30 90 -47 90 C-45.515 89.505 -45.515 89.505 -44 89 C-44 88.34 -44 87.68 -44 87 C-29.48 87 -14.96 87 0 87 C0 58.29 0 29.58 0 0 Z " fill="#EEC43E" transform="translate(643,587)"/>
<path d="M0 0 C0.66 0.33 1.32 0.66 2 1 C1.46109131 1.53367187 0.92218262 2.06734375 0.36694336 2.6171875 C-2.11226236 5.07539426 -4.58739599 7.53766366 -7.0625 10 C-7.91005859 10.83917969 -8.75761719 11.67835938 -9.63085938 12.54296875 C-14.13595218 17.03066737 -18.44780859 21.53976061 -22.42749023 26.50390625 C-24.24661101 28.23462696 -25.5492844 28.61271332 -28 29 C-22.61359076 22.44622903 -16.64114873 16.52753365 -10.625 10.5625 C-9.59221405 9.53474017 -8.55966009 8.50674715 -7.52734375 7.47851562 C-5.02089713 4.98298402 -2.5113292 2.49061918 0 0 Z " fill="#F8EA4A" transform="translate(676,361)"/>
<path d="M0 0 C9.58814371 0.34551869 15.19629444 5.61866173 21.56640625 12.328125 C22.18386719 13.00359375 22.80132813 13.6790625 23.4375 14.375 C22.7775 15.035 22.1175 15.695 21.4375 16.375 C20.26487096 15.25621617 19.09954862 14.12976949 17.9375 13 C17.2878125 12.37351562 16.638125 11.74703125 15.96875 11.1015625 C14.4375 9.375 14.4375 9.375 14.4375 7.375 C13.7775 7.375 13.1175 7.375 12.4375 7.375 C12.4375 6.715 12.4375 6.055 12.4375 5.375 C6.47954521 3.38901507 0.68857435 2.80454941 -5.5625 2.375 C-3.5625 0.375 -3.5625 0.375 0 0 Z " fill="#1C110C" transform="translate(759.5625,320.625)"/>
<path d="M0 0 C6.41056555 5.27090945 12.17650261 11.09919955 18 17 C19.33224609 18.30324219 19.33224609 18.30324219 20.69140625 19.6328125 C23.27521575 22.28220092 25.04183274 24.88143733 27 28 C26.34 28.33 25.68 28.66 25 29 C24.44280273 28.11538086 23.88560547 27.23076172 23.31152344 26.31933594 C21.19285738 23.14610286 18.75526235 20.55624588 16.015625 17.890625 C15.08105469 16.97152344 14.14648438 16.05242187 13.18359375 15.10546875 C12.20630111 14.1530586 11.22842964 13.20124205 10.25 12.25 C8.3119433 10.36502343 6.38084361 8.47375953 4.453125 6.578125 C3.59879883 5.74700195 2.74447266 4.91587891 1.86425781 4.05957031 C0 2 0 2 0 0 Z " fill="#08070B" transform="translate(784,338)"/>
<path d="M0 0 C3.28009039 1.43301374 5.42976886 3.19468883 7.93359375 5.73828125 C8.66513672 6.47626953 9.39667969 7.21425781 10.15039062 7.97460938 C10.90513672 8.74611328 11.65988281 9.51761719 12.4375 10.3125 C13.18837891 11.07240234 13.93925781 11.83230469 14.71289062 12.61523438 C16.16524139 14.08546808 17.61381313 15.55944694 19.05810547 17.03759766 C20.68597367 18.68265733 22.34947484 20.27072635 24.03515625 21.85546875 C26 24 26 24 26 27 C21.57644145 23.3889318 17.79311876 19.71449234 14.109375 15.36328125 C10.86941549 11.73332661 7.39004735 8.34870257 3.91137695 4.94873047 C2.5905523 3.64957938 1.29293818 2.326907 0 1 C0 0.67 0 0.34 0 0 Z " fill="#150F0C" transform="translate(533,566)"/>
<path d="M0 0 C3.04332765 1.3584202 5.12309151 2.88463024 7.453125 5.2578125 C8.071875 5.88300781 8.690625 6.50820313 9.328125 7.15234375 C9.96234375 7.80332031 10.5965625 8.45429688 11.25 9.125 C11.8996875 9.78371094 12.549375 10.44242187 13.21875 11.12109375 C14.81711727 12.74296643 16.41061897 14.3693281 18 16 C17.34 16.66 16.68 17.32 16 18 C13.32529045 15.38308836 10.66165519 12.75518292 8 10.125 C7.236875 9.37863281 6.47375 8.63226563 5.6875 7.86328125 C4.965625 7.14785156 4.24375 6.43242187 3.5 5.6953125 C2.8296875 5.03547363 2.159375 4.37563477 1.46875 3.69580078 C0 2 0 2 0 0 Z " fill="#E3C63F" transform="translate(786,338)"/>
<path d="M0 0 C2.93230193 1.32120828 4.98664899 2.74638197 7.234375 5.0390625 C8.09482422 5.90917969 8.09482422 5.90917969 8.97265625 6.796875 C9.55917969 7.40015625 10.14570312 8.0034375 10.75 8.625 C11.35199219 9.23601562 11.95398438 9.84703125 12.57421875 10.4765625 C14.05405305 11.97988624 15.52764676 13.48934856 17 15 C16.34 15.66 15.68 16.32 15 17 C12.49195282 14.54976242 9.9949924 12.08852402 7.5 9.625 C6.78457031 8.92632812 6.06914063 8.22765625 5.33203125 7.5078125 C4.65527344 6.8375 3.97851562 6.1671875 3.28125 5.4765625 C2.65283203 4.85861816 2.02441406 4.24067383 1.37695312 3.60400391 C0 2 0 2 0 0 Z " fill="#E1C63F" transform="translate(730,387)"/>
<path d="M0 0 C4.26763313 2.2859534 7.47663624 5.23583857 10.8125 8.6875 C11.31458984 9.19861328 11.81667969 9.70972656 12.33398438 10.23632812 C13.56063509 11.48634362 14.78097491 12.7425468 16 14 C15.34 14.66 14.68 15.32 14 16 C12.49403892 14.54782324 10.99537896 13.08807139 9.5 11.625 C8.6646875 10.81289063 7.829375 10.00078125 6.96875 9.1640625 C5 7 5 7 5 5 C4.360625 4.731875 3.72125 4.46375 3.0625 4.1875 C1 3 1 3 0 0 Z " fill="#2B1E11" transform="translate(744,403)"/>
<path d="M0 0 C3.90285767 1.58667578 6.33520982 4.13350481 9.25 7.125 C10.14203125 8.03507813 11.0340625 8.94515625 11.953125 9.8828125 C12.62859375 10.58148437 13.3040625 11.28015625 14 12 C13.34 12.66 12.68 13.32 12 14 C10.49403892 12.54782324 8.99537896 11.08807139 7.5 9.625 C6.6646875 8.81289063 5.829375 8.00078125 4.96875 7.1640625 C3 5 3 5 3 3 C2.01 2.67 1.02 2.34 0 2 C0 1.34 0 0.68 0 0 Z " fill="#E3CA40" transform="translate(538,573)"/>
<path d="M0 0 C4.48632152 1.42268935 7.03803663 3.66247289 10.3125 7 C11.19550781 7.886875 12.07851563 8.77375 12.98828125 9.6875 C15 12 15 12 15 14 C15.99 14.33 16.98 14.66 18 15 C17.34 15.66 16.68 16.32 16 17 C15.26394531 16.19175781 14.52789063 15.38351562 13.76953125 14.55078125 C12.78391591 13.47129779 11.79823535 12.39187388 10.8125 11.3125 C10.32974609 10.78205078 9.84699219 10.25160156 9.34960938 9.70507812 C6.312614 6.38272748 3.2063098 3.15941679 0 0 Z " fill="#F4E54B" transform="translate(769,322)"/>
<path d="M0 0 C3.21524305 1.40844718 5.32183868 3.10344786 7.75 5.625 C8.67039062 6.57246094 8.67039062 6.57246094 9.609375 7.5390625 C10.29773438 8.26222656 10.29773438 8.26222656 11 9 C10.34 9.66 9.68 10.32 9 11 C7.49403892 9.54782324 5.99537896 8.08807139 4.5 6.625 C3.6646875 5.81289063 2.829375 5.00078125 1.96875 4.1640625 C0 2 0 2 0 0 Z " fill="#2C1F10" transform="translate(559,592)"/>
<path d="M0 0 C3.21524305 1.40844718 5.32183868 3.10344786 7.75 5.625 C8.67039062 6.57246094 8.67039062 6.57246094 9.609375 7.5390625 C10.29773438 8.26222656 10.29773438 8.26222656 11 9 C10.34 9.66 9.68 10.32 9 11 C7.82737096 9.88121617 6.66204862 8.75476949 5.5 7.625 C4.8503125 6.99851562 4.200625 6.37203125 3.53125 5.7265625 C2 4 2 4 2 2 C1.34 2 0.68 2 0 2 C0 1.34 0 0.68 0 0 Z " fill="#2E1D10" transform="translate(772,326)"/>
<path d="M0 0 C0.66 0.33 1.32 0.66 2 1 C-1.75 5.875 -1.75 5.875 -4 7 C-5.13350534 9.01669827 -5.13350534 9.01669827 -6 11 C-6.33 10.01 -6.66 9.02 -7 8 C-4.95925695 4.42869967 -3.44246864 2.2949791 0 0 Z " fill="#FAE249" transform="translate(286,274)"/>
<path d="M0 0 C0.66 0.33 1.32 0.66 2 1 C-1.625 6.75 -1.625 6.75 -5 9 C-5.99 8.67 -6.98 8.34 -8 8 C-5.36 5.36 -2.72 2.72 0 0 Z " fill="#F1D343" transform="translate(591,445)"/>
<path d="M0 0 C3.68069887 1.53643852 5.98775204 3.78150945 8.75 6.625 C9.54921875 7.44226563 10.3484375 8.25953125 11.171875 9.1015625 C12.07679688 10.04128906 12.07679688 10.04128906 13 11 C12.34 11.66 11.68 12.32 11 13 C10.37351562 12.28972656 9.74703125 11.57945312 9.1015625 10.84765625 C8.28429687 9.92855469 7.46703125 9.00945312 6.625 8.0625 C5.81289063 7.14597656 5.00078125 6.22945313 4.1640625 5.28515625 C2.21290653 2.96398605 2.21290653 2.96398605 0 2 C0 1.34 0 0.68 0 0 Z " fill="#F2D844" transform="translate(722,353)"/>
<path d="M0 0 C0.66 0.33 1.32 0.66 2 1 C-0.56573676 4.49873195 -3.07847818 7.12929946 -6.625 9.625 C-7.25664063 10.07101562 -7.88828125 10.51703125 -8.5390625 10.9765625 C-9.02117188 11.31429688 -9.50328125 11.65203125 -10 12 C-8.52278578 8.54798361 -6.56205999 6.35038064 -3.875 3.75 C-3.15054688 3.04359375 -2.42609375 2.3371875 -1.6796875 1.609375 C-1.12539063 1.07828125 -0.57109375 0.5471875 0 0 Z " fill="#F3DB45" transform="translate(711,484)"/>
<path d="M0 0 C4.2742558 1.5830577 6.26531794 4.50568404 9 8 C6 8 6 8 4.39453125 6.7578125 C3.87246094 6.21898437 3.35039063 5.68015625 2.8125 5.125 C2.28269531 4.59132813 1.75289062 4.05765625 1.20703125 3.5078125 C0 2 0 2 0 0 Z " fill="#EACC42" transform="translate(730,387)"/>
<path d="M0 0 C0 0.66 0 1.32 0 2 C-0.99 2.33 -1.98 2.66 -3 3 C-3.33 3.66 -3.66 4.32 -4 5 C-4.99 5.33 -5.98 5.66 -7 6 C-7.99 7.485 -7.99 7.485 -9 9 C-9.66 8.67 -10.32 8.34 -11 8 C-4.73913043 0 -4.73913043 0 0 0 Z " fill="#1B100B" transform="translate(338,347)"/>
<path d="M0 0 C1.67110042 2.96178773 2.32682752 5.37071192 2.625 8.75 C2.69976562 9.54921875 2.77453125 10.3484375 2.8515625 11.171875 C2.90054688 11.77515625 2.94953125 12.3784375 3 13 C0.75393573 11.22555028 0.04918998 10.41647515 -0.29296875 7.51953125 C-0.25816406 6.62621094 -0.22335938 5.73289062 -0.1875 4.8125 C-0.16042969 3.91144531 -0.13335937 3.01039063 -0.10546875 2.08203125 C-0.07066406 1.39496094 -0.03585938 0.70789063 0 0 Z " fill="#FDD845" transform="translate(124,786)"/>
<path d="M0 0 C0.66 0.33 1.32 0.66 2 1 C1.01 1.33 0.02 1.66 -1 2 C-1.309375 2.639375 -1.61875 3.27875 -1.9375 3.9375 C-3.2342338 6.45468915 -4.4221737 6.96886948 -7 8 C-6.875 6.25 -6.875 6.25 -6 4 C-2.9375 1.75 -2.9375 1.75 0 0 Z " fill="#16110E" transform="translate(751,323)"/>
<path d="M0 0 C0.66 0.99 1.32 1.98 2 3 C0.35 4.32 -1.3 5.64 -3 7 C-3.66 6.34 -4.32 5.68 -5 5 C-3.35 3.35 -1.7 1.7 0 0 Z " fill="#ECC63D" transform="translate(582,454)"/>
<path d="M0 0 C0.66 0.66 1.32 1.32 2 2 C0.35 3.65 -1.3 5.3 -3 7 C-3.99 6.67 -4.98 6.34 -6 6 C-4.02 4.02 -2.04 2.04 0 0 Z " fill="#F8DB43" transform="translate(654,383)"/>
<path d="M0 0 C-1.24976756 3.65316671 -1.67098753 4.78065836 -5 7 C-5.66 6.34 -6.32 5.68 -7 5 C-2.25 0 -2.25 0 0 0 Z " fill="#F4D541" transform="translate(649,548)"/>
<path d="M0 0 C3.36720387 1.39332574 4.9859524 2.9789286 7 6 C6.01 6 5.02 6 4 6 C3.67 5.01 3.34 4.02 3 3 C2.01 2.67 1.02 2.34 0 2 C0 1.34 0 0.68 0 0 Z " fill="#EDD343" transform="translate(538,573)"/>
<path d="M0 0 C1.60080151 4.00200378 0.29279692 7.04556236 -1 11 C-1.33 11 -1.66 11 -2 11 C-2.25 3.375 -2.25 3.375 0 0 Z " fill="#FDD845" transform="translate(127,219)"/>
<path d="M0 0 C3 1 3 1 3 1 Z " fill="#F3C43F" transform="translate(217,895)"/>
<path d="M0 0 C2 1 2 1 2 1 Z " fill="#F2C440" transform="translate(235,898)"/>
<path d="M0 0 C2 1 2 1 2 1 Z " fill="#F3C241" transform="translate(804,895)"/>
<path d="" fill="#F0BF3E" transform="translate(0,0)"/>
<path d="" fill="#EEC13F" transform="translate(0,0)"/>
<path d="M0 0 C2 1 2 1 2 1 Z " fill="#F1C441" transform="translate(232,125)"/>
<path d="" fill="#5B440E" transform="translate(0,0)"/>
<path d="" fill="#61460F" transform="translate(0,0)"/>
<path d="" fill="#6D5113" transform="translate(0,0)"/>
<path d="" fill="#644B11" transform="translate(0,0)"/>
<path d="" fill="#302203" transform="translate(0,0)"/>
<path d="" fill="#1A1200" transform="translate(0,0)"/>
<path d="" fill="#B48E2B" transform="translate(0,0)"/>
<path d="" fill="#F1C33F" transform="translate(0,0)"/>
<path d="" fill="#F3C340" transform="translate(0,0)"/>
<path d="" fill="#F2C340" transform="translate(0,0)"/>
<path d="" fill="#F0C141" transform="translate(0,0)"/>
<path d="" fill="#F0C33F" transform="translate(0,0)"/>
<path d="" fill="#EDBE3F" transform="translate(0,0)"/>
<path d="" fill="#F2C43E" transform="translate(0,0)"/>
<path d="" fill="#F0C13E" transform="translate(0,0)"/>
<path d="" fill="#EFC13F" transform="translate(0,0)"/>
<path d="" fill="#EFC13E" transform="translate(0,0)"/>
<path d="" fill="#EEC13C" transform="translate(0,0)"/>
<path d="" fill="#EFC03E" transform="translate(0,0)"/>
<path d="" fill="#EDC13D" transform="translate(0,0)"/>
<path d="" fill="#EFBF3F" transform="translate(0,0)"/>
<path d="" fill="#EBBE3C" transform="translate(0,0)"/>
<path d="" fill="#EEC13F" transform="translate(0,0)"/>
<path d="" fill="#EFBF3E" transform="translate(0,0)"/>
<path d="" fill="#EEBE3A" transform="translate(0,0)"/>
<path d="" fill="#EEBE3D" transform="translate(0,0)"/>
<path d="" fill="#EFC13E" transform="translate(0,0)"/>
<path d="" fill="#EFC13F" transform="translate(0,0)"/>
<path d="" fill="#F0C23F" transform="translate(0,0)"/>
<path d="" fill="#F2BF3F" transform="translate(0,0)"/>
<path d="" fill="#F1C33F" transform="translate(0,0)"/>
<path d="" fill="#F2C240" transform="translate(0,0)"/>
<path d="" fill="#F4C641" transform="translate(0,0)"/>
<path d="" fill="#F6C541" transform="translate(0,0)"/>
<path d="" fill="#F3C442" transform="translate(0,0)"/>
<path d="" fill="#F5C53E" transform="translate(0,0)"/>
<path d="" fill="#7D611E" transform="translate(0,0)"/>
<path d="" fill="#7F601D" transform="translate(0,0)"/>
<path d="" fill="#765C1C" transform="translate(0,0)"/>
<path d="" fill="#765D1B" transform="translate(0,0)"/>
<path d="" fill="#81641D" transform="translate(0,0)"/>
<path d="" fill="#7E631C" transform="translate(0,0)"/>
<path d="" fill="#F2C03E" transform="translate(0,0)"/>
<path d="" fill="#F0C23F" transform="translate(0,0)"/>
<path d="" fill="#F1C440" transform="translate(0,0)"/>
<path d="" fill="#EDBD3E" transform="translate(0,0)"/>
<path d="" fill="#EFC141" transform="translate(0,0)"/>
<path d="" fill="#ECBE3F" transform="translate(0,0)"/>
<path d="" fill="#EEBE3D" transform="translate(0,0)"/>
<path d="" fill="#EBBF3D" transform="translate(0,0)"/>
<path d="" fill="#EFC142" transform="translate(0,0)"/>
<path d="" fill="#EDC13F" transform="translate(0,0)"/>
<path d="" fill="#E7BA3E" transform="translate(0,0)"/>
<path d="" fill="#ECBE3D" transform="translate(0,0)"/>
<path d="" fill="#F3C441" transform="translate(0,0)"/>
<path d="" fill="#F2C23F" transform="translate(0,0)"/>
<path d="" fill="#F1C23E" transform="translate(0,0)"/>
<path d="" fill="#EFC03E" transform="translate(0,0)"/>
<path d="" fill="#F2C241" transform="translate(0,0)"/>
<path d="" fill="#EFC33F" transform="translate(0,0)"/>
<path d="" fill="#F1C53F" transform="translate(0,0)"/>
<path d="" fill="#F3C340" transform="translate(0,0)"/>
<path d="" fill="#F2C640" transform="translate(0,0)"/>
<path d="" fill="#F3C542" transform="translate(0,0)"/>
<path d="" fill="#F3C541" transform="translate(0,0)"/>
<path d="" fill="#F1C541" transform="translate(0,0)"/>
<path d="" fill="#2C2002" transform="translate(0,0)"/>
<path d="" fill="#8C6E20" transform="translate(0,0)"/>
<path d="" fill="#090500" transform="translate(0,0)"/>
<path d="" fill="#040100" transform="translate(0,0)"/>
<path d="" fill="#684F13" transform="translate(0,0)"/>
<path d="" fill="#6D5315" transform="translate(0,0)"/>
<path d="" fill="#664D14" transform="translate(0,0)"/>
<path d="" fill="#040000" transform="translate(0,0)"/>
<path d="" fill="#6D5214" transform="translate(0,0)"/>
<path d="" fill="#644C13" transform="translate(0,0)"/>
</svg>
